<svg width="156" height="56" viewBox="0 0 156 56" fill="none" xmlns="http://www.w3.org/2000/svg">
<rect width="57" height="56" rx="5" fill="white"/>
<path d="M21.484 16.512H26.056L28.936 24.972L31.816 16.512H36.424L32.068 28.14L35.308 36.312L42.544 16.44H47.944L37.54 42H33.364L28.936 31.272L24.508 42H20.332L10 16.44H15.328L22.6 36.312L25.768 28.14L21.484 16.512Z" fill="#0415AA"/>
<path d="M62.5608 42V23.136H67.3848V42H62.5608ZM62.5608 20.508V15.72H67.3848V20.508H62.5608ZM89.2686 42H84.4446V31.416C84.4446 29.904 84.1806 28.8 83.6526 28.104C83.1246 27.408 82.3926 27.06 81.4566 27.06C80.9766 27.06 80.4846 27.156 79.9806 27.348C79.4766 27.54 78.9966 27.816 78.5406 28.176C78.1086 28.512 77.7126 28.92 77.3526 29.4C76.9926 29.88 76.7286 30.408 76.5606 30.984V42H71.7366V23.136H76.0926V26.628C76.7886 25.428 77.7966 24.492 79.1166 23.82C80.4366 23.148 81.9246 22.812 83.5806 22.812C84.7566 22.812 85.7166 23.028 86.4606 23.46C87.2046 23.892 87.7806 24.456 88.1886 25.152C88.5966 25.848 88.8726 26.64 89.0166 27.528C89.1846 28.416 89.2686 29.316 89.2686 30.228V42ZM114.523 35.412C114.523 36.492 114.307 37.44 113.875 38.256C113.443 39.072 112.843 39.756 112.075 40.308C111.331 40.86 110.455 41.28 109.447 41.568C108.463 41.856 107.407 42 106.279 42H93.9312V16.44H107.611C108.499 16.44 109.303 16.632 110.023 17.016C110.743 17.4 111.355 17.904 111.859 18.528C112.363 19.128 112.747 19.824 113.011 20.616C113.299 21.384 113.443 22.164 113.443 22.956C113.443 24.204 113.131 25.38 112.507 26.484C111.883 27.564 110.971 28.368 109.771 28.896C111.235 29.328 112.387 30.108 113.227 31.236C114.091 32.34 114.523 33.732 114.523 35.412ZM109.519 34.476C109.519 34.02 109.435 33.588 109.267 33.18C109.123 32.748 108.919 32.376 108.655 32.064C108.391 31.752 108.079 31.512 107.719 31.344C107.359 31.152 106.963 31.056 106.531 31.056H98.8992V37.788H106.279C106.735 37.788 107.155 37.704 107.539 37.536C107.947 37.368 108.295 37.14 108.583 36.852C108.871 36.54 109.099 36.18 109.267 35.772C109.435 35.364 109.519 34.932 109.519 34.476ZM98.8992 20.688V27.132H105.523C106.363 27.132 107.071 26.844 107.647 26.268C108.247 25.692 108.547 24.9 108.547 23.892C108.547 22.908 108.271 22.128 107.719 21.552C107.191 20.976 106.531 20.688 105.739 20.688H98.8992ZM126.644 42.36C125.108 42.36 123.728 42.096 122.504 41.568C121.28 41.04 120.236 40.332 119.372 39.444C118.532 38.532 117.884 37.488 117.428 36.312C116.972 35.136 116.744 33.9 116.744 32.604C116.744 31.284 116.972 30.036 117.428 28.86C117.884 27.684 118.532 26.652 119.372 25.764C120.236 24.852 121.28 24.132 122.504 23.604C123.728 23.076 125.108 22.812 126.644 22.812C128.18 22.812 129.548 23.076 130.748 23.604C131.972 24.132 133.004 24.852 133.844 25.764C134.708 26.652 135.368 27.684 135.824 28.86C136.28 30.036 136.508 31.284 136.508 32.604C136.508 33.9 136.28 35.136 135.824 36.312C135.368 37.488 134.72 38.532 133.88 39.444C133.04 40.332 132.008 41.04 130.784 41.568C129.56 42.096 128.18 42.36 126.644 42.36ZM121.712 32.604C121.712 33.444 121.832 34.212 122.072 34.908C122.336 35.58 122.684 36.168 123.116 36.672C123.572 37.176 124.1 37.572 124.7 37.86C125.3 38.124 125.948 38.256 126.644 38.256C127.34 38.256 127.988 38.124 128.588 37.86C129.188 37.572 129.704 37.176 130.136 36.672C130.592 36.168 130.94 35.568 131.18 34.872C131.444 34.176 131.576 33.408 131.576 32.568C131.576 31.752 131.444 30.996 131.18 30.3C130.94 29.604 130.592 29.004 130.136 28.5C129.704 27.996 129.188 27.612 128.588 27.348C127.988 27.06 127.34 26.916 126.644 26.916C125.948 26.916 125.3 27.06 124.7 27.348C124.1 27.636 123.572 28.032 123.116 28.536C122.684 29.04 122.336 29.64 122.072 30.336C121.832 31.032 121.712 31.788 121.712 32.604ZM141.943 23.136L146.011 29.04L146.299 29.688L146.659 29.04L150.691 23.136H155.659L148.927 32.604L155.767 42H150.799L146.623 36.132L146.299 35.52L146.011 36.132L141.871 42H136.903L143.707 32.604L137.011 23.136H141.943Z" fill="white"/>
</svg>
