<svg width="1562" height="1165" viewBox="0 0 1562 1165" fill="none" xmlns="http://www.w3.org/2000/svg">
<path d="M1034 1.99999C1034 0.89542 1034.9 0 1036 0H1444C1466.09 0 1484 17.9086 1484 40V448C1484 449.105 1483.1 450 1482 450H1074C1051.91 450 1034 432.091 1034 410V1.99999Z" fill="#CFF6FF"/>
<path d="M1004 32C1004 30.8954 1004.9 30 1006 30H1414C1436.09 30 1454 47.9086 1454 70V478C1454 479.105 1453.1 480 1452 480H1044C1021.91 480 1004 462.091 1004 440V32Z" fill="#B5F2FF"/>
<g opacity="0.23" filter="url(#filter0_f_21_1973)">
<path d="M166.778 953.339H1409.74L1375.69 1031.9L200.831 1027.14L166.778 953.339Z" fill="#08235C"/>
</g>
<path d="M1376.2 75.4136H194.486C173.312 75.4136 156.142 92.3428 156.142 113.242V903.693H161.625V107.811C161.625 106.144 161.762 104.494 162.003 102.896C162.089 102.363 162.175 101.83 162.295 101.297C162.398 100.782 162.518 100.249 162.656 99.7333C162.793 99.2177 162.931 98.702 163.103 98.2036C164.46 93.9069 166.712 89.9882 169.634 86.6539C169.977 86.2586 170.321 85.8805 170.699 85.5024C170.871 85.3133 171.06 85.1415 171.249 84.9524C172.916 83.3024 174.773 81.8415 176.766 80.5697C177.437 80.1572 178.107 79.7447 178.812 79.3838C179.499 79.0057 180.221 78.6619 180.943 78.3354C181.424 78.1291 181.923 77.9229 182.404 77.7338C186.116 76.2901 190.172 75.4995 194.418 75.4995H1376.13C1381.77 75.4995 1387.1 76.9088 1391.75 79.401C1392.44 79.7791 1393.13 80.1744 1393.8 80.5869C1394.68 81.1541 1395.54 81.7556 1396.36 82.3915C1396.77 82.7181 1397.19 83.0446 1397.56 83.3712C1398.17 83.8868 1398.73 84.4024 1399.28 84.9524C1399.47 85.1415 1399.66 85.3133 1399.83 85.5024C1400.19 85.8805 1400.55 86.2586 1400.9 86.6539C1405.88 92.3256 1408.91 99.7161 1408.91 107.811V903.675H1414.46V110.853C1413.22 91.071 1396.57 75.4136 1376.2 75.4136Z" fill="url(#paint0_linear_21_1973)"/>
<path d="M156.056 107.829C156.056 86.9293 173.226 70 194.4 70H1376.11C1397.29 70 1414.46 86.9293 1414.46 107.829V110.854C1413.22 91.0713 1396.57 75.4139 1376.2 75.4139H194.486C173.312 75.4139 156.142 92.3432 156.142 113.243L156.056 107.829Z" fill="url(#paint1_linear_21_1973)"/>
<path d="M1408.91 881.539H161.625V903.676H1408.91V881.539Z" fill="#FAFCFF"/>
<path d="M1408.91 108V881.539H161.625V108C161.625 90.0742 176.337 75.4824 194.417 75.4824H1376.13C1394.2 75.4824 1408.91 90.0742 1408.91 108Z" fill="white"/>
<path d="M1414.46 903.676V905.704H1408.91V905.687H161.624V905.704H156.142V903.676H1414.46Z" fill="#E1E8F7"/>
<path d="M778.967 906.873H2.67856V930.368H778.967V906.873Z" fill="white"/>
<path d="M1555.26 905.704H2.67883V906.872H1555.26V905.704Z" fill="white"/>
<path d="M1555.26 906.873H778.967V930.368H1555.26V906.873Z" fill="white"/>
<g filter="url(#filter1_d_21_1973)">
<path d="M778.967 906.874H2.67856V928.977H778.967V906.874Z" fill="white"/>
</g>
<g filter="url(#filter2_d_21_1973)">
<path d="M1555.26 906.873H778.967V928.976H1555.26V906.873Z" fill="white"/>
</g>
<path d="M889.462 905.704C889.462 910.671 887.451 915.174 884.186 918.423C880.938 921.671 876.452 923.699 871.467 923.699H686.449C676.514 923.699 668.471 915.638 668.471 905.704H889.462Z" fill="url(#paint2_linear_21_1973)"/>
<path d="M889.463 905.704C889.463 910.671 887.452 915.174 884.186 918.423C880.938 921.671 876.452 923.699 871.468 923.699H686.449C676.515 923.699 668.471 915.638 668.471 905.704H667.595V907.045C667.595 916.979 675.656 925.022 685.59 925.022H872.327C882.279 925.022 890.322 916.979 890.322 907.045V905.704H889.463Z" fill="url(#paint3_linear_21_1973)"/>
<path d="M2.67856 930.367C57.2647 944.1 114.119 951.078 171.301 951.078H778.967H1386.63C1443.81 951.078 1500.67 944.1 1555.26 930.367H778.967H2.67856Z" fill="url(#paint4_linear_21_1973)"/>
<rect x="186.695" y="120.726" width="1199.15" height="743.298" rx="10.4479" fill="white" stroke="#E5E7EC" stroke-width="3.47987"/>
<mask id="mask0_21_1973" style="mask-type:alpha" maskUnits="userSpaceOnUse" x="188" y="122" width="1197" height="741">
<rect x="188.435" y="122.465" width="1195.67" height="739.818" rx="8.70792" fill="white"/>
</mask>
<g mask="url(#mask0_21_1973)">
<rect x="182" y="122" width="1202" height="742" fill="#000E89"/>
<rect x="523.857" y="400" width="189.322" height="186" rx="16.6072" fill="#F9F9FB"/>
<path d="M595.215 453.915H610.4L619.966 482.014L629.532 453.915H644.837L630.369 492.536L641.13 519.679L665.164 453.676H683.1L648.544 538.571H634.673L619.966 502.939L605.259 538.571H591.388L557.071 453.676H574.768L598.921 519.679L609.444 492.536L595.215 453.915Z" fill="#000E89"/>
<path d="M731.649 538.571V475.916H747.671V538.571H731.649ZM731.649 467.187V451.284H747.671V467.187H731.649ZM820.357 538.571H804.334V503.417C804.334 498.395 803.457 494.728 801.703 492.417C799.95 490.105 797.518 488.949 794.41 488.949C792.815 488.949 791.181 489.268 789.507 489.906C787.833 490.543 786.239 491.46 784.724 492.656C783.289 493.772 781.974 495.127 780.778 496.721C779.583 498.316 778.706 500.069 778.148 501.982V538.571H762.125V475.916H776.593V487.514C778.905 483.529 782.253 480.42 786.637 478.188C791.022 475.956 795.964 474.84 801.464 474.84C805.37 474.84 808.559 475.557 811.03 476.992C813.501 478.427 815.414 480.3 816.769 482.612C818.125 484.924 819.041 487.554 819.52 490.504C820.078 493.453 820.357 496.442 820.357 499.471V538.571ZM904.238 516.69C904.238 520.277 903.52 523.426 902.086 526.136C900.651 528.846 898.658 531.118 896.107 532.951C893.636 534.785 890.726 536.18 887.378 537.136C884.11 538.093 880.603 538.571 876.856 538.571H835.843V453.676H881.28C884.23 453.676 886.9 454.313 889.291 455.589C891.683 456.864 893.716 458.538 895.39 460.611C897.064 462.604 898.339 464.915 899.216 467.546C900.172 470.097 900.651 472.687 900.651 475.318C900.651 479.463 899.614 483.369 897.542 487.036C895.469 490.623 892.44 493.294 888.454 495.047C893.317 496.482 897.143 499.073 899.933 502.819C902.803 506.486 904.238 511.11 904.238 516.69ZM887.617 513.581C887.617 512.066 887.338 510.631 886.78 509.276C886.302 507.841 885.625 506.606 884.748 505.57C883.871 504.533 882.835 503.736 881.639 503.178C880.443 502.54 879.128 502.222 877.693 502.222H852.344V524.581H876.856C878.371 524.581 879.766 524.302 881.041 523.744C882.396 523.186 883.552 522.429 884.509 521.473C885.465 520.436 886.222 519.241 886.78 517.885C887.338 516.53 887.617 515.095 887.617 513.581ZM852.344 467.785V489.188H874.345C877.135 489.188 879.487 488.232 881.4 486.319C883.393 484.405 884.389 481.775 884.389 478.427C884.389 475.159 883.472 472.568 881.639 470.655C879.885 468.742 877.693 467.785 875.062 467.785H852.344ZM944.496 539.767C939.394 539.767 934.811 538.89 930.745 537.136C926.68 535.383 923.212 533.031 920.343 530.082C917.553 527.053 915.4 523.585 913.886 519.679C912.371 515.773 911.614 511.668 911.614 507.363C911.614 502.979 912.371 498.834 913.886 494.928C915.4 491.022 917.553 487.594 920.343 484.645C923.212 481.615 926.68 479.224 930.745 477.47C934.811 475.717 939.394 474.84 944.496 474.84C949.598 474.84 954.142 475.717 958.127 477.47C962.193 479.224 965.62 481.615 968.41 484.645C971.28 487.594 973.472 491.022 974.987 494.928C976.501 498.834 977.259 502.979 977.259 507.363C977.259 511.668 976.501 515.773 974.987 519.679C973.472 523.585 971.32 527.053 968.53 530.082C965.74 533.031 962.312 535.383 958.247 537.136C954.181 538.89 949.598 539.767 944.496 539.767ZM928.115 507.363C928.115 510.153 928.513 512.704 929.31 515.016C930.187 517.248 931.343 519.201 932.778 520.875C934.293 522.549 936.046 523.864 938.039 524.821C940.032 525.697 942.184 526.136 944.496 526.136C946.808 526.136 948.96 525.697 950.953 524.821C952.946 523.864 954.66 522.549 956.095 520.875C957.609 519.201 958.765 517.208 959.562 514.896C960.439 512.584 960.877 510.034 960.877 507.244C960.877 504.533 960.439 502.022 959.562 499.711C958.765 497.399 957.609 495.406 956.095 493.732C954.66 492.058 952.946 490.783 950.953 489.906C948.96 488.949 946.808 488.471 944.496 488.471C942.184 488.471 940.032 488.949 938.039 489.906C936.046 490.862 934.293 492.178 932.778 493.852C931.343 495.526 930.187 497.518 929.31 499.83C928.513 502.142 928.115 504.653 928.115 507.363ZM995.312 475.916L1008.82 495.526L1009.78 497.678L1010.98 495.526L1024.37 475.916H1040.87L1018.51 507.363L1041.23 538.571H1024.73L1010.86 519.081L1009.78 517.048L1008.82 519.081L995.073 538.571H978.572L1001.17 507.363L978.931 475.916H995.312Z" fill="white"/>
</g>
<defs>
<filter id="filter0_f_21_1973" x="34.3991" y="820.961" width="1507.72" height="343.315" filterUnits="userSpaceOnUse" color-interpolation-filters="sRGB">
<feFlood flood-opacity="0" result="BackgroundImageFix"/>
<feBlend mode="normal" in="SourceGraphic" in2="BackgroundImageFix" result="shape"/>
<feGaussianBlur stdDeviation="66.1893" result="effect1_foregroundBlur_21_1973"/>
</filter>
<filter id="filter1_d_21_1973" x="0.534429" y="902.586" width="784.865" height="30.6791" filterUnits="userSpaceOnUse" color-interpolation-filters="sRGB">
<feFlood flood-opacity="0" result="BackgroundImageFix"/>
<feColorMatrix in="SourceAlpha" type="matrix" values="0 0 0 0 0 0 0 0 0 0 0 0 0 0 0 0 0 0 127 0" result="hardAlpha"/>
<feOffset dx="2.14413"/>
<feGaussianBlur stdDeviation="2.14413"/>
<feColorMatrix type="matrix" values="0 0 0 0 0 0 0 0 0 0 0 0 0 0 0 0 0 0 0.06 0"/>
<feBlend mode="normal" in2="BackgroundImageFix" result="effect1_dropShadow_21_1973"/>
<feBlend mode="normal" in="SourceGraphic" in2="effect1_dropShadow_21_1973" result="shape"/>
</filter>
<filter id="filter2_d_21_1973" x="776.823" y="902.585" width="784.865" height="30.6791" filterUnits="userSpaceOnUse" color-interpolation-filters="sRGB">
<feFlood flood-opacity="0" result="BackgroundImageFix"/>
<feColorMatrix in="SourceAlpha" type="matrix" values="0 0 0 0 0 0 0 0 0 0 0 0 0 0 0 0 0 0 127 0" result="hardAlpha"/>
<feOffset dx="2.14413"/>
<feGaussianBlur stdDeviation="2.14413"/>
<feColorMatrix type="matrix" values="0 0 0 0 0 0 0 0 0 0 0 0 0 0 0 0 0 0 0.06 0"/>
<feBlend mode="normal" in2="BackgroundImageFix" result="effect1_dropShadow_21_1973"/>
<feBlend mode="normal" in="SourceGraphic" in2="effect1_dropShadow_21_1973" result="shape"/>
</filter>
<linearGradient id="paint0_linear_21_1973" x1="632.621" y1="853.505" x2="628.2" y2="863.609" gradientUnits="userSpaceOnUse">
<stop stop-color="#E3E7EF"/>
<stop offset="0.3139" stop-color="#E4E9F5"/>
<stop offset="0.447" stop-color="#E1E8F7"/>
</linearGradient>
<linearGradient id="paint1_linear_21_1973" x1="785.257" y1="113.229" x2="785.257" y2="70" gradientUnits="userSpaceOnUse">
<stop stop-color="#E3E7EF"/>
<stop offset="0.3139" stop-color="#E3E7EF"/>
<stop offset="0.447" stop-color="#E3E7EF"/>
<stop offset="1" stop-color="#E3E7EF"/>
</linearGradient>
<linearGradient id="paint2_linear_21_1973" x1="668.471" y1="914.698" x2="889.454" y2="914.698" gradientUnits="userSpaceOnUse">
<stop stop-color="#E9EDF7"/>
<stop offset="0.0395" stop-color="#E6ECF7"/>
<stop offset="0.514" stop-color="#D5DAE5"/>
<stop offset="0.9628" stop-color="#E8EEFA"/>
<stop offset="1" stop-color="#EDF3FF"/>
</linearGradient>
<linearGradient id="paint3_linear_21_1973" x1="667.601" y1="915.362" x2="890.326" y2="915.362" gradientUnits="userSpaceOnUse">
<stop offset="0.00041222" stop-color="#F7F7F7"/>
<stop offset="0.5247" stop-color="#F8F8F8"/>
<stop offset="1" stop-color="#F7F7F7"/>
</linearGradient>
<linearGradient id="paint4_linear_21_1973" x1="778.963" y1="951.071" x2="778.963" y2="930.365" gradientUnits="userSpaceOnUse">
<stop stop-color="#DEE5F4"/>
<stop offset="0.7389" stop-color="#EDF3FF"/>
<stop offset="0.8472" stop-color="#E8EFFF"/>
<stop offset="0.9363" stop-color="#ECF2FF"/>
<stop offset="1" stop-color="#D7E3FF"/>
</linearGradient>
</defs>
</svg>
