<svg width="25" height="29" viewBox="0 0 25 29" fill="none" xmlns="http://www.w3.org/2000/svg">
<path d="M4 9V24.5C4 26.1569 5.34315 27.5 7 27.5H18C19.6569 27.5 21 26.1569 21 24.5V9M4 9H21M4 9H2C1.44772 9 1 8.55228 1 8V5.5C1 4.94772 1.44772 4.5 2 4.5H8M21 9H22.5C23.0523 9 23.5 8.55228 23.5 8V5.5C23.5 4.94772 23.0523 4.5 22.5 4.5H16M8 4.5V2C8 1.44772 8.44772 1 9 1H15C15.5523 1 16 1.44772 16 2V4.5M8 4.5H16" stroke="#ED2F2F" stroke-width="2"/>
<path d="M8.5 13V22" stroke="#ED2F2F" stroke-width="2" stroke-linecap="round"/>
<path d="M12 13V22" stroke="#ED2F2F" stroke-width="2" stroke-linecap="round"/>
<path d="M15.5 13V22" stroke="#ED2F2F" stroke-width="2" stroke-linecap="round"/>
</svg>
