<svg width="589" height="504" viewBox="0 0 589 504" fill="none" xmlns="http://www.w3.org/2000/svg">
<path d="M432.777 207.933C386.709 239.836 295.787 267.492 300.641 122.891C307.276 -74.751 114.064 10.7953 33 172C-13.0296 263.535 -6.49987 442.806 33.0003 476.986C119.293 551.657 360.642 455.151 461.765 385.425C503.451 356.683 579.676 278.574 551.092 196.08C519.743 122.002 477.833 172.573 432.777 207.933Z" fill="#EFF1FF"/>
<path d="M309.377 380.752L360.135 411.741L372.423 388.233L336.625 365.258L375.094 337.475L265.564 281.908C235.644 271.222 193.613 289.923 176.338 300.608C144.708 318.561 167.789 346.558 180.612 355.106L266.099 408.536L309.377 380.752Z" fill="#E8D6D6"/>
<path d="M359.6 323.049V412.81L379.369 421.893V334.803L359.6 323.049Z" fill="#AE9F9F"/>
<path d="M399.138 346.71L379.369 334.803V421.893L399.138 413.344V346.71Z" fill="#C1ACAC"/>
<path d="M427.455 363.655L291.745 282.442V202.298L427.455 279.771V363.655Z" fill="#FFE2E2"/>
<path d="M427.455 279.771L291.745 202.298C296.743 137.732 341.728 114.607 365.279 110.67C366.451 110.474 367.636 110.726 368.661 111.325L510.369 194.284C454.375 193.857 429.948 250.385 427.455 279.771Z" fill="#FFD9D9"/>
<path d="M429.058 279.771V363.655L520.957 304.348V215.121C520.957 201.443 512.15 197.628 507.599 196.955C458.444 189.689 434.757 249.138 429.058 279.771Z" fill="#E3C6C6"/>
<path d="M429.058 279.771V361.181C429.058 362.248 430.24 362.892 431.137 362.313L520.648 304.547C520.84 304.423 520.957 304.21 520.957 303.981V215.121C520.957 201.443 512.15 197.628 507.599 196.955C458.444 189.689 434.757 249.138 429.058 279.771Z" stroke="#FFF3F3" stroke-width="6.41152"/>
<path d="M331.816 285.114V241.836L347.845 251.453L346.777 294.197L340.365 274.962L331.816 285.114Z" fill="#ED2F2F"/>
<path d="M409.289 287.251L331.816 241.836" stroke="#DCB8B8" stroke-width="3.20576"/>
<circle cx="415.701" cy="290.457" r="7.48011" stroke="#ED2F2F" stroke-width="2.13717"/>
<circle cx="415.701" cy="290.457" r="3.20576" stroke="#ED2F2F" stroke-width="2.13717"/>
<circle cx="549.263" cy="143.425" r="36.8404" stroke="#ED2F2F" stroke-width="4.5"/>
<path d="M549.264 127.276V144.529" stroke="#ED2F2F" stroke-width="6.5" stroke-linecap="round"/>
<circle cx="549.263" cy="155.293" r="3.63313" fill="#ED2F2F"/>
<g filter="url(#filter0_d_93_820)">
<rect x="212.951" y="47.7205" width="134.795" height="134.795" rx="13.4795" fill="white"/>
</g>
<path d="M250.785 106.137H254.097L255.953 98.7448L257.745 106.137H261.057L263.985 94.9048H261.041L259.409 103.081L257.489 94.9048H254.481L252.481 103.081L250.865 94.9048H247.937L250.785 106.137ZM265.357 106.137H268.093V97.2088H265.357V106.137ZM266.733 96.2808C267.693 96.2808 268.349 95.6248 268.349 94.8088C268.349 93.9768 267.693 93.3208 266.733 93.3208C265.757 93.3208 265.101 93.9768 265.101 94.8088C265.101 95.6248 265.757 96.2808 266.733 96.2808ZM270.508 103.033C270.508 105.353 271.804 106.137 273.66 106.137H275.052V103.817H274.076C273.468 103.817 273.244 103.593 273.244 103.065V99.4808H275.036V97.2088H273.244V95.0328H270.508V97.2088H269.42V99.4808H270.508V103.033ZM276.576 106.137H279.312V101.289C279.312 100.073 279.984 99.4008 281.024 99.4008C282.064 99.4008 282.736 100.073 282.736 101.289V106.137H285.456V100.921C285.456 98.5208 284.096 97.1128 282.064 97.1128C280.832 97.1128 279.856 97.6408 279.312 98.4088V94.2968H276.576V106.137ZM296.093 101.673C296.093 98.8408 294.077 97.0808 291.453 97.0808C288.845 97.0808 286.813 98.8408 286.813 101.673C286.813 104.505 288.797 106.265 291.421 106.265C294.045 106.265 296.093 104.505 296.093 101.673ZM289.597 101.673C289.597 100.153 290.461 99.4488 291.453 99.4488C292.413 99.4488 293.309 100.153 293.309 101.673C293.309 103.177 292.397 103.897 291.421 103.897C290.429 103.897 289.597 103.177 289.597 101.673ZM306.36 97.2088H303.624V102.057C303.624 103.273 302.952 103.945 301.896 103.945C300.872 103.945 300.184 103.273 300.184 102.057V97.2088H297.464V102.425C297.464 104.809 298.856 106.233 300.92 106.233C302.12 106.233 303.08 105.689 303.624 104.921V106.137H306.36V97.2088ZM308.758 103.033C308.758 105.353 310.054 106.137 311.91 106.137H313.302V103.817H312.326C311.718 103.817 311.494 103.593 311.494 103.065V99.4808H313.286V97.2088H311.494V95.0328H308.758V97.2088H307.67V99.4808H308.758V103.033ZM232.936 126.097H235.912V135.137H238.648V126.097H241.624V123.905H232.936V126.097ZM242.998 135.137H245.734V130.289C245.734 129.073 246.406 128.401 247.446 128.401C248.486 128.401 249.158 129.073 249.158 130.289V135.137H251.878V129.921C251.878 127.521 250.518 126.113 248.486 126.113C247.254 126.113 246.278 126.641 245.734 127.409V123.297H242.998V135.137ZM257.715 128.273C258.627 128.273 259.395 128.833 259.395 129.809H255.971C256.131 128.817 256.819 128.273 257.715 128.273ZM261.987 132.177H259.075C258.851 132.657 258.419 133.041 257.651 133.041C256.771 133.041 256.051 132.497 255.955 131.329H262.147C262.179 131.057 262.195 130.785 262.195 130.529C262.195 127.809 260.355 126.081 257.747 126.081C255.091 126.081 253.235 127.841 253.235 130.673C253.235 133.505 255.123 135.265 257.747 135.265C259.971 135.265 261.555 133.921 261.987 132.177ZM269.285 135.137H272.597L274.453 127.745L276.245 135.137H279.557L282.485 123.905H279.541L277.909 132.081L275.989 123.905H272.981L270.981 132.081L269.365 123.905H266.437L269.285 135.137ZM283.857 135.137H286.593V126.209H283.857V135.137ZM285.233 125.281C286.193 125.281 286.849 124.625 286.849 123.809C286.849 122.977 286.193 122.321 285.233 122.321C284.257 122.321 283.601 122.977 283.601 123.809C283.601 124.625 284.257 125.281 285.233 125.281ZM294.736 135.137H297.456V129.921C297.456 127.521 296.08 126.113 294.016 126.113C292.816 126.113 291.856 126.641 291.312 127.393V126.209H288.576V135.137H291.312V130.289C291.312 129.073 291.984 128.401 293.024 128.401C294.064 128.401 294.736 129.073 294.736 130.289V135.137ZM302.093 127.473V123.297H299.357V135.137H302.093V133.889C302.589 134.673 303.533 135.265 304.845 135.265C307.037 135.265 308.781 133.473 308.781 130.657C308.781 127.841 307.053 126.081 304.845 126.081C303.565 126.081 302.589 126.673 302.093 127.473ZM305.997 130.657C305.997 132.081 305.069 132.881 304.029 132.881C303.005 132.881 302.077 132.097 302.077 130.673C302.077 129.249 303.005 128.465 304.029 128.465C305.069 128.465 305.997 129.233 305.997 130.657ZM318.952 130.673C318.952 127.841 316.936 126.081 314.312 126.081C311.704 126.081 309.672 127.841 309.672 130.673C309.672 133.505 311.656 135.265 314.28 135.265C316.904 135.265 318.952 133.505 318.952 130.673ZM312.456 130.673C312.456 129.153 313.32 128.449 314.312 128.449C315.272 128.449 316.168 129.153 316.168 130.673C316.168 132.177 315.256 132.897 314.28 132.897C313.288 132.897 312.456 132.177 312.456 130.673ZM325.684 135.137H328.756L325.684 130.705L328.676 126.209H325.716L324.276 128.673L322.564 126.209H319.492L322.516 130.577L319.572 135.137H322.532L323.972 132.657L325.684 135.137Z" fill="#000639"/>
<defs>
<filter id="filter0_d_93_820" x="148.924" y="0.542381" width="296.548" height="296.548" filterUnits="userSpaceOnUse" color-interpolation-filters="sRGB">
<feFlood flood-opacity="0" result="BackgroundImageFix"/>
<feColorMatrix in="SourceAlpha" type="matrix" values="0 0 0 0 0 0 0 0 0 0 0 0 0 0 0 0 0 0 127 0" result="hardAlpha"/>
<feOffset dx="16.8493" dy="33.6986"/>
<feGaussianBlur stdDeviation="40.4384"/>
<feComposite in2="hardAlpha" operator="out"/>
<feColorMatrix type="matrix" values="0 0 0 0 0.0166667 0 0 0 0 0.0816667 0 0 0 0 0.666667 0 0 0 0.2 0"/>
<feBlend mode="normal" in2="BackgroundImageFix" result="effect1_dropShadow_93_820"/>
<feBlend mode="normal" in="SourceGraphic" in2="effect1_dropShadow_93_820" result="shape"/>
</filter>
</defs>
</svg>
