<svg width="591" height="502" viewBox="0 0 591 502" fill="none" xmlns="http://www.w3.org/2000/svg">
<path d="M159.103 205.633C205.171 237.536 296.092 265.192 291.239 120.591C284.604 -77.0506 477.816 8.49576 558.88 169.7C604.909 261.236 598.38 440.506 558.88 474.687C472.587 549.358 231.238 452.851 130.114 383.126C88.4289 354.383 12.2038 276.275 40.7881 193.781C72.1365 119.702 114.047 170.273 159.103 205.633Z" fill="#EFF1FF"/>
<path d="M323.053 378.876L272.244 409.897L259.943 386.364L295.777 363.366L257.269 335.555L366.91 279.932C396.861 269.236 438.934 287.955 456.227 298.651C487.889 316.622 464.784 344.647 451.948 353.204L366.375 406.688L323.053 378.876Z" fill="#D6D8E8"/>
<path d="M272.779 321.114V410.966L252.99 420.059V332.881L272.779 321.114Z" fill="#9FA1AE"/>
<path d="M233.201 344.8L252.99 332.881V420.059L233.201 411.501V344.8Z" fill="#ACAFC1"/>
<path d="M204.855 361.762L340.703 280.467V200.242L204.855 277.793V361.762Z" fill="#CED1ED"/>
<path d="M204.855 277.793L340.703 200.242C335.699 135.61 290.669 112.462 267.094 108.52C265.922 108.324 264.735 108.576 263.709 109.177L121.857 192.219C177.908 191.791 202.359 248.377 204.855 277.793Z" fill="#BCC2F8"/>
<path d="M203.251 277.793V361.762L111.26 302.396V213.078C111.26 199.387 120.075 195.568 124.63 194.894C173.835 187.62 197.546 247.129 203.251 277.793Z" fill="white"/>
<path d="M203.251 277.793V359.286C203.251 360.354 202.068 360.999 201.17 360.419L111.568 302.595C111.376 302.471 111.26 302.257 111.26 302.028V213.078C111.26 199.387 120.075 195.568 124.63 194.894C173.835 187.62 197.546 247.129 203.251 277.793Z" stroke="#7987FF" stroke-width="6.418"/>
<path d="M258.101 190.615L214.63 191.409L216.551 205.912L267.485 206.002L248.192 199.702L258.101 190.615Z" fill="#0415AA"/>
<path d="M216.909 281.124L216.242 191.233" stroke="#7E84B4" stroke-width="3.209"/>
<circle r="7.48767" transform="matrix(-1 0 0 1 216.622 288.49)" stroke="#0415AA" stroke-width="2.13933"/>
<circle r="3.209" transform="matrix(-1 0 0 1 216.622 288.49)" stroke="#0415AA" stroke-width="2.13933"/>
<circle cx="160.799" cy="409.821" r="36.88" stroke="#0415AA" stroke-width="4.5"/>
<path d="M145.957 411.171L155.402 420.616L176.316 399.702" stroke="#0415AA" stroke-width="6.5" stroke-linecap="round" stroke-linejoin="round"/>
<g filter="url(#filter0_d_93_884)">
<rect x="64.9976" y="48.2065" width="134.931" height="134.931" rx="13.4931" fill="white"/>
</g>
<path d="M116.635 106.662H119.947L121.803 99.2696L123.595 106.662H126.907L129.835 95.4296H126.891L125.259 103.606L123.339 95.4296H120.331L118.331 103.606L116.715 95.4296H113.787L116.635 106.662ZM131.207 106.662H133.943V97.7336H131.207V106.662ZM132.583 96.8056C133.543 96.8056 134.199 96.1496 134.199 95.3336C134.199 94.5016 133.543 93.8456 132.583 93.8456C131.607 93.8456 130.951 94.5016 130.951 95.3336C130.951 96.1496 131.607 96.8056 132.583 96.8056ZM136.357 103.558C136.357 105.878 137.653 106.662 139.509 106.662H140.901V104.342H139.925C139.317 104.342 139.093 104.118 139.093 103.59V100.006H140.885V97.7336H139.093V95.5576H136.357V97.7336H135.269V100.006H136.357V103.558ZM142.425 106.662H145.161V101.814C145.161 100.598 145.833 99.9256 146.873 99.9256C147.913 99.9256 148.585 100.598 148.585 101.814V106.662H151.305V101.446C151.305 99.0456 149.945 97.6376 147.913 97.6376C146.681 97.6376 145.705 98.1656 145.161 98.9336V94.8216H142.425V106.662ZM85.0518 126.622H88.0278V135.662H90.7638V126.622H93.7398V124.43H85.0518V126.622ZM95.1129 135.662H97.8489V130.814C97.8489 129.598 98.5209 128.926 99.5609 128.926C100.601 128.926 101.273 129.598 101.273 130.814V135.662H103.993V130.446C103.993 128.046 102.633 126.638 100.601 126.638C99.3689 126.638 98.3929 127.166 97.8489 127.934V123.822H95.1129V135.662ZM109.83 128.798C110.742 128.798 111.51 129.358 111.51 130.334H108.086C108.246 129.342 108.934 128.798 109.83 128.798ZM114.102 132.702H111.19C110.966 133.182 110.534 133.566 109.766 133.566C108.886 133.566 108.166 133.022 108.07 131.854H114.262C114.294 131.582 114.31 131.31 114.31 131.054C114.31 128.334 112.47 126.606 109.862 126.606C107.206 126.606 105.35 128.366 105.35 131.198C105.35 134.03 107.238 135.79 109.862 135.79C112.086 135.79 113.67 134.446 114.102 132.702ZM121.4 135.662H124.712L126.568 128.27L128.36 135.662H131.672L134.6 124.43H131.656L130.024 132.606L128.104 124.43H125.096L123.096 132.606L121.48 124.43H118.552L121.4 135.662ZM135.972 135.662H138.708V126.734H135.972V135.662ZM137.348 125.806C138.308 125.806 138.964 125.15 138.964 124.334C138.964 123.502 138.308 122.846 137.348 122.846C136.372 122.846 135.716 123.502 135.716 124.334C135.716 125.15 136.372 125.806 137.348 125.806ZM146.851 135.662H149.571V130.446C149.571 128.046 148.195 126.638 146.131 126.638C144.931 126.638 143.971 127.166 143.427 127.918V126.734H140.691V135.662H143.427V130.814C143.427 129.598 144.099 128.926 145.139 128.926C146.179 128.926 146.851 129.598 146.851 130.814V135.662ZM154.208 127.998V123.822H151.472V135.662H154.208V134.414C154.704 135.198 155.648 135.79 156.96 135.79C159.152 135.79 160.896 133.998 160.896 131.182C160.896 128.366 159.168 126.606 156.96 126.606C155.68 126.606 154.704 127.198 154.208 127.998ZM158.112 131.182C158.112 132.606 157.184 133.406 156.144 133.406C155.12 133.406 154.192 132.622 154.192 131.198C154.192 129.774 155.12 128.99 156.144 128.99C157.184 128.99 158.112 129.758 158.112 131.182ZM171.068 131.198C171.068 128.366 169.052 126.606 166.428 126.606C163.82 126.606 161.788 128.366 161.788 131.198C161.788 134.03 163.772 135.79 166.396 135.79C169.02 135.79 171.068 134.03 171.068 131.198ZM164.572 131.198C164.572 129.678 165.436 128.974 166.428 128.974C167.388 128.974 168.284 129.678 168.284 131.198C168.284 132.702 167.372 133.422 166.396 133.422C165.404 133.422 164.572 132.702 164.572 131.198ZM177.799 135.662H180.871L177.799 131.23L180.791 126.734H177.831L176.391 129.198L174.679 126.734H171.607L174.631 131.102L171.687 135.662H174.647L176.087 133.182L177.799 135.662Z" fill="#000639"/>
<defs>
<filter id="filter0_d_93_884" x="0.905399" y="0.980743" width="296.848" height="296.848" filterUnits="userSpaceOnUse" color-interpolation-filters="sRGB">
<feFlood flood-opacity="0" result="BackgroundImageFix"/>
<feColorMatrix in="SourceAlpha" type="matrix" values="0 0 0 0 0 0 0 0 0 0 0 0 0 0 0 0 0 0 127 0" result="hardAlpha"/>
<feOffset dx="16.8664" dy="33.7327"/>
<feGaussianBlur stdDeviation="40.4793"/>
<feComposite in2="hardAlpha" operator="out"/>
<feColorMatrix type="matrix" values="0 0 0 0 0.0166667 0 0 0 0 0.0816667 0 0 0 0 0.666667 0 0 0 0.2 0"/>
<feBlend mode="normal" in2="BackgroundImageFix" result="effect1_dropShadow_93_884"/>
<feBlend mode="normal" in="SourceGraphic" in2="effect1_dropShadow_93_884" result="shape"/>
</filter>
</defs>
</svg>
